<mxfile host="app.diagrams.net" modified="2022-05-27T16:47:08.971Z" agent="5.0 (Macintosh; Intel Mac OS X 10_15_7) AppleWebKit/537.36 (KHTML, like Gecko) Chrome/102.0.5005.61 Safari/537.36" etag="GJaJsjEZd05M8FJOzSip" version="18.1.2" type="github">
  <diagram id="QevR58mqHxNy5xoqsCGV" name="第 1 页">
    <mxGraphModel dx="1351" dy="1453" grid="1" gridSize="10" guides="1" tooltips="1" connect="1" arrows="1" fold="1" page="1" pageScale="1" pageWidth="827" pageHeight="1169" math="0" shadow="0">
      <root>
        <mxCell id="0" />
        <mxCell id="1" parent="0" />
        <mxCell id="cNbQgifqtuX8BF5_g4Zv-7" style="edgeStyle=orthogonalEdgeStyle;rounded=0;orthogonalLoop=1;jettySize=auto;html=1;entryX=0;entryY=0.5;entryDx=0;entryDy=0;" parent="1" source="cNbQgifqtuX8BF5_g4Zv-2" target="cNbQgifqtuX8BF5_g4Zv-6" edge="1">
          <mxGeometry relative="1" as="geometry" />
        </mxCell>
        <mxCell id="cNbQgifqtuX8BF5_g4Zv-8" value="&amp;lt;creates&amp;gt;" style="edgeLabel;html=1;align=center;verticalAlign=middle;resizable=0;points=[];" parent="cNbQgifqtuX8BF5_g4Zv-7" vertex="1" connectable="0">
          <mxGeometry x="-0.3037" y="-1" relative="1" as="geometry">
            <mxPoint x="1" as="offset" />
          </mxGeometry>
        </mxCell>
        <mxCell id="cNbQgifqtuX8BF5_g4Zv-11" style="edgeStyle=orthogonalEdgeStyle;rounded=0;orthogonalLoop=1;jettySize=auto;html=1;entryX=0.5;entryY=0;entryDx=0;entryDy=0;" parent="1" source="cNbQgifqtuX8BF5_g4Zv-2" target="cNbQgifqtuX8BF5_g4Zv-10" edge="1">
          <mxGeometry relative="1" as="geometry">
            <Array as="points">
              <mxPoint x="-295" y="20" />
            </Array>
          </mxGeometry>
        </mxCell>
        <mxCell id="cNbQgifqtuX8BF5_g4Zv-12" value="&amp;lt;creates&amp;gt;" style="edgeLabel;html=1;align=center;verticalAlign=middle;resizable=0;points=[];" parent="cNbQgifqtuX8BF5_g4Zv-11" vertex="1" connectable="0">
          <mxGeometry x="0.2465" y="1" relative="1" as="geometry">
            <mxPoint as="offset" />
          </mxGeometry>
        </mxCell>
        <mxCell id="cNbQgifqtuX8BF5_g4Zv-23" style="edgeStyle=orthogonalEdgeStyle;rounded=0;orthogonalLoop=1;jettySize=auto;html=1;entryX=0;entryY=0.5;entryDx=0;entryDy=0;" parent="1" source="cNbQgifqtuX8BF5_g4Zv-2" target="cNbQgifqtuX8BF5_g4Zv-22" edge="1">
          <mxGeometry relative="1" as="geometry">
            <Array as="points">
              <mxPoint x="-440" y="730" />
            </Array>
          </mxGeometry>
        </mxCell>
        <mxCell id="cNbQgifqtuX8BF5_g4Zv-2" value="Clients" style="rounded=0;whiteSpace=wrap;html=1;fillColor=#d5e8d4;strokeColor=#82b366;" parent="1" vertex="1">
          <mxGeometry x="-560" y="-10" width="120" height="60" as="geometry" />
        </mxCell>
        <mxCell id="cNbQgifqtuX8BF5_g4Zv-5" value="" style="group" parent="1" vertex="1" connectable="0">
          <mxGeometry x="-50" y="-20" width="130" height="110" as="geometry" />
        </mxCell>
        <mxCell id="cNbQgifqtuX8BF5_g4Zv-6" value="" style="rounded=0;whiteSpace=wrap;html=1;" parent="cNbQgifqtuX8BF5_g4Zv-5" vertex="1">
          <mxGeometry x="-35.45454545454545" y="-28.947368421052634" width="165.45454545454544" height="138.94736842105263" as="geometry" />
        </mxCell>
        <mxCell id="cNbQgifqtuX8BF5_g4Zv-3" value="Questions" style="rounded=0;whiteSpace=wrap;html=1;fillColor=#e1d5e7;strokeColor=#9673a6;" parent="cNbQgifqtuX8BF5_g4Zv-5" vertex="1">
          <mxGeometry width="94.54545454545455" height="34.73684210526316" as="geometry" />
        </mxCell>
        <mxCell id="cNbQgifqtuX8BF5_g4Zv-4" value="Options" style="rounded=0;whiteSpace=wrap;html=1;fillColor=#e1d5e7;strokeColor=#9673a6;" parent="cNbQgifqtuX8BF5_g4Zv-5" vertex="1">
          <mxGeometry y="46.31578947368421" width="94.54545454545455" height="34.73684210526316" as="geometry" />
        </mxCell>
        <mxCell id="cNbQgifqtuX8BF5_g4Zv-9" value="&amp;lt;inputs&amp;gt;" style="edgeStyle=orthogonalEdgeStyle;rounded=0;orthogonalLoop=1;jettySize=auto;html=1;" parent="1" source="cNbQgifqtuX8BF5_g4Zv-6" target="cNbQgifqtuX8BF5_g4Zv-1" edge="1">
          <mxGeometry relative="1" as="geometry" />
        </mxCell>
        <mxCell id="cNbQgifqtuX8BF5_g4Zv-16" style="edgeStyle=orthogonalEdgeStyle;rounded=0;orthogonalLoop=1;jettySize=auto;html=1;entryX=0;entryY=0.5;entryDx=0;entryDy=0;exitX=1;exitY=0.5;exitDx=0;exitDy=0;" parent="1" source="cNbQgifqtuX8BF5_g4Zv-10" target="cNbQgifqtuX8BF5_g4Zv-14" edge="1">
          <mxGeometry relative="1" as="geometry">
            <mxPoint x="-190" y="520" as="sourcePoint" />
            <mxPoint x="-160" y="420" as="targetPoint" />
            <Array as="points">
              <mxPoint x="-250" y="170" />
              <mxPoint x="-250" y="430" />
            </Array>
          </mxGeometry>
        </mxCell>
        <mxCell id="cNbQgifqtuX8BF5_g4Zv-21" value="&amp;lt;conforms&amp;gt;" style="edgeLabel;html=1;align=center;verticalAlign=middle;resizable=0;points=[];" parent="cNbQgifqtuX8BF5_g4Zv-16" vertex="1" connectable="0">
          <mxGeometry x="0.2449" y="1" relative="1" as="geometry">
            <mxPoint as="offset" />
          </mxGeometry>
        </mxCell>
        <mxCell id="cNbQgifqtuX8BF5_g4Zv-19" style="edgeStyle=orthogonalEdgeStyle;rounded=0;orthogonalLoop=1;jettySize=auto;html=1;entryX=0;entryY=0.5;entryDx=0;entryDy=0;" parent="1" source="cNbQgifqtuX8BF5_g4Zv-10" target="cNbQgifqtuX8BF5_g4Zv-18" edge="1">
          <mxGeometry relative="1" as="geometry">
            <Array as="points">
              <mxPoint x="-320" y="560" />
            </Array>
          </mxGeometry>
        </mxCell>
        <mxCell id="cNbQgifqtuX8BF5_g4Zv-20" value="&amp;lt;conforms&amp;gt;" style="edgeLabel;html=1;align=center;verticalAlign=middle;resizable=0;points=[];" parent="cNbQgifqtuX8BF5_g4Zv-19" vertex="1" connectable="0">
          <mxGeometry x="0.0092" relative="1" as="geometry">
            <mxPoint as="offset" />
          </mxGeometry>
        </mxCell>
        <mxCell id="cNbQgifqtuX8BF5_g4Zv-10" value="Answering Screen" style="rounded=0;whiteSpace=wrap;html=1;fillColor=#60a917;fontColor=#ffffff;strokeColor=#2D7600;" parent="1" vertex="1">
          <mxGeometry x="-350" y="140" width="130" height="60" as="geometry" />
        </mxCell>
        <mxCell id="cNbQgifqtuX8BF5_g4Zv-29" value="" style="group;glass=0;rounded=0;" parent="1" vertex="1" connectable="0">
          <mxGeometry x="-70" y="400" width="532" height="405" as="geometry" />
        </mxCell>
        <mxCell id="cNbQgifqtuX8BF5_g4Zv-30" value="" style="shape=cube;whiteSpace=wrap;html=1;boundedLbl=1;backgroundOutline=1;darkOpacity=0.05;darkOpacity2=0.1;shadow=0;sketch=0;" parent="cNbQgifqtuX8BF5_g4Zv-29" vertex="1">
          <mxGeometry x="-48" y="-45" width="580" height="450" as="geometry" />
        </mxCell>
        <mxCell id="cNbQgifqtuX8BF5_g4Zv-1" value="QuizEngine" style="rounded=0;whiteSpace=wrap;html=1;fillColor=#fff2cc;strokeColor=#d6b656;" parent="cNbQgifqtuX8BF5_g4Zv-29" vertex="1">
          <mxGeometry x="364" width="120" height="60" as="geometry" />
        </mxCell>
        <mxCell id="cNbQgifqtuX8BF5_g4Zv-14" value="&amp;lt;AnsweringUIProviding&amp;gt;" style="whiteSpace=wrap;html=1;fillColor=#fff2cc;strokeColor=#d6b656;rounded=0;" parent="cNbQgifqtuX8BF5_g4Zv-29" vertex="1">
          <mxGeometry width="180" height="60" as="geometry" />
        </mxCell>
        <mxCell id="cNbQgifqtuX8BF5_g4Zv-15" value="" style="edgeStyle=orthogonalEdgeStyle;rounded=0;orthogonalLoop=1;jettySize=auto;html=1;" parent="cNbQgifqtuX8BF5_g4Zv-29" source="cNbQgifqtuX8BF5_g4Zv-1" target="cNbQgifqtuX8BF5_g4Zv-14" edge="1">
          <mxGeometry relative="1" as="geometry" />
        </mxCell>
        <mxCell id="cNbQgifqtuX8BF5_g4Zv-24" style="edgeStyle=orthogonalEdgeStyle;rounded=0;orthogonalLoop=1;jettySize=auto;html=1;entryX=0.5;entryY=1;entryDx=0;entryDy=0;" parent="cNbQgifqtuX8BF5_g4Zv-29" source="cNbQgifqtuX8BF5_g4Zv-18" target="cNbQgifqtuX8BF5_g4Zv-1" edge="1">
          <mxGeometry relative="1" as="geometry" />
        </mxCell>
        <mxCell id="cNbQgifqtuX8BF5_g4Zv-25" value="&amp;lt;stores user&#39;s question &amp;amp; answer&amp;gt;" style="edgeLabel;html=1;align=center;verticalAlign=middle;resizable=0;points=[];" parent="cNbQgifqtuX8BF5_g4Zv-24" vertex="1" connectable="0">
          <mxGeometry x="-0.3972" relative="1" as="geometry">
            <mxPoint as="offset" />
          </mxGeometry>
        </mxCell>
        <mxCell id="cNbQgifqtuX8BF5_g4Zv-18" value="&amp;lt;AnswerProvidingHandling&amp;gt;" style="whiteSpace=wrap;html=1;fillColor=#fff2cc;strokeColor=#d6b656;" parent="cNbQgifqtuX8BF5_g4Zv-29" vertex="1">
          <mxGeometry y="130" width="170" height="60" as="geometry" />
        </mxCell>
        <mxCell id="cNbQgifqtuX8BF5_g4Zv-27" style="edgeStyle=orthogonalEdgeStyle;rounded=0;orthogonalLoop=1;jettySize=auto;html=1;exitX=1;exitY=0.5;exitDx=0;exitDy=0;entryX=0.5;entryY=1;entryDx=0;entryDy=0;" parent="cNbQgifqtuX8BF5_g4Zv-29" source="cNbQgifqtuX8BF5_g4Zv-22" target="cNbQgifqtuX8BF5_g4Zv-1" edge="1">
          <mxGeometry relative="1" as="geometry" />
        </mxCell>
        <mxCell id="cNbQgifqtuX8BF5_g4Zv-28" value="&amp;lt;put user&#39;s all question&amp;amp;answer back to clients&amp;gt;" style="edgeLabel;html=1;align=center;verticalAlign=middle;resizable=0;points=[];" parent="cNbQgifqtuX8BF5_g4Zv-27" vertex="1" connectable="0">
          <mxGeometry x="-0.6858" y="1" relative="1" as="geometry">
            <mxPoint x="138" y="1" as="offset" />
          </mxGeometry>
        </mxCell>
        <mxCell id="cNbQgifqtuX8BF5_g4Zv-22" value="&amp;lt;AnswerCompletionHandling&amp;gt;" style="whiteSpace=wrap;html=1;fillColor=#fff2cc;strokeColor=#d6b656;" parent="cNbQgifqtuX8BF5_g4Zv-29" vertex="1">
          <mxGeometry y="300" width="170" height="60" as="geometry" />
        </mxCell>
        <mxCell id="cNbQgifqtuX8BF5_g4Zv-26" value="&amp;lt;when is last one done&amp;gt;" style="edgeStyle=orthogonalEdgeStyle;rounded=0;orthogonalLoop=1;jettySize=auto;html=1;" parent="cNbQgifqtuX8BF5_g4Zv-29" source="cNbQgifqtuX8BF5_g4Zv-18" target="cNbQgifqtuX8BF5_g4Zv-22" edge="1">
          <mxGeometry relative="1" as="geometry" />
        </mxCell>
        <mxCell id="PdoRV1rLWRBL35N2X1Tp-5" style="edgeStyle=orthogonalEdgeStyle;rounded=0;orthogonalLoop=1;jettySize=auto;html=1;" edge="1" parent="1" source="PdoRV1rLWRBL35N2X1Tp-1" target="PdoRV1rLWRBL35N2X1Tp-2">
          <mxGeometry relative="1" as="geometry" />
        </mxCell>
        <mxCell id="PdoRV1rLWRBL35N2X1Tp-1" value="Quiz" style="rounded=0;whiteSpace=wrap;html=1;" vertex="1" parent="1">
          <mxGeometry x="-120" y="950" width="120" height="60" as="geometry" />
        </mxCell>
        <mxCell id="PdoRV1rLWRBL35N2X1Tp-6" style="edgeStyle=orthogonalEdgeStyle;rounded=0;orthogonalLoop=1;jettySize=auto;html=1;exitX=1;exitY=0.25;exitDx=0;exitDy=0;entryX=0;entryY=0.5;entryDx=0;entryDy=0;" edge="1" parent="1" source="PdoRV1rLWRBL35N2X1Tp-2" target="PdoRV1rLWRBL35N2X1Tp-3">
          <mxGeometry relative="1" as="geometry" />
        </mxCell>
        <mxCell id="PdoRV1rLWRBL35N2X1Tp-7" style="edgeStyle=orthogonalEdgeStyle;rounded=0;orthogonalLoop=1;jettySize=auto;html=1;exitX=1;exitY=0.75;exitDx=0;exitDy=0;" edge="1" parent="1" source="PdoRV1rLWRBL35N2X1Tp-2" target="PdoRV1rLWRBL35N2X1Tp-4">
          <mxGeometry relative="1" as="geometry" />
        </mxCell>
        <mxCell id="PdoRV1rLWRBL35N2X1Tp-2" value="QuizItem" style="rounded=0;whiteSpace=wrap;html=1;" vertex="1" parent="1">
          <mxGeometry x="40" y="950" width="120" height="60" as="geometry" />
        </mxCell>
        <mxCell id="PdoRV1rLWRBL35N2X1Tp-3" value="QuizItemQuestion" style="rounded=0;whiteSpace=wrap;html=1;" vertex="1" parent="1">
          <mxGeometry x="230" y="900" width="120" height="60" as="geometry" />
        </mxCell>
        <mxCell id="PdoRV1rLWRBL35N2X1Tp-4" value="QuizItemOptions" style="rounded=0;whiteSpace=wrap;html=1;" vertex="1" parent="1">
          <mxGeometry x="230" y="990" width="120" height="60" as="geometry" />
        </mxCell>
      </root>
    </mxGraphModel>
  </diagram>
</mxfile>
